<svg version="1.1" xmlns="http://www.w3.org/2000/svg" width="500px" height="500px" transform="rotate(0) scale(1, 1)">
<path d="M0 0 C1.18013672 -0.03738281 2.36027344 -0.07476562 3.57617188 -0.11328125 C12.1967571 -0.20109706 12.1967571 -0.20109706 16.23828125 2.48828125 C18.21903537 5.622708 19.33495288 8.36282556 20.3125 11.9375 C20.62703125 13.05253906 20.9415625 14.16757813 21.265625 15.31640625 C21.72991235 17.09845033 22.15795223 18.89217756 22.4921875 20.703125 C22.68039062 21.25484375 22.86859375 21.8065625 23.0625 22.375 C25.93314083 23.63748906 25.93314083 23.63748906 29.0625 24.375 C30.0525 24.705 31.0425 25.035 32.0625 25.375 C34.61159287 24.49764223 34.61159287 24.49764223 37.3125 23.125 C38.78203125 22.43277344 38.78203125 22.43277344 40.28125 21.7265625 C41.89228726 20.9436708 43.49908885 20.15166801 45.09375 19.3359375 C49.44218147 17.22101856 52.39158635 17.27596149 57.0625 18.375 C57.7225 18.705 58.3825 19.035 59.0625 19.375 C59.0625 20.035 59.0625 20.695 59.0625 21.375 C59.61808594 21.60445312 60.17367188 21.83390625 60.74609375 22.0703125 C63.70206971 23.73522982 65.74776994 25.83332871 68.125 28.25 C68.98222656 29.11367187 69.83945312 29.97734375 70.72265625 30.8671875 C71.88087891 32.10855469 71.88087891 32.10855469 73.0625 33.375 C73.67996094 33.97570312 74.29742187 34.57640625 74.93359375 35.1953125 C76.71551965 38.63584763 76.03203204 41.77982539 75.0625 45.375 C73.96049952 47.97384596 72.61133935 50.40476791 71.25 52.875 C68.77283947 57.69831536 68.77283947 57.69831536 68.2109375 63.015625 C69.91611918 66.95065965 71.68343209 68.19223511 75.5625 70.0625 C77.0614185 70.5036911 78.56158442 70.94065144 80.0625 71.375 C82.1989946 72.15677496 84.32378823 72.97107038 86.4375 73.8125 C87.45585937 74.20308594 88.47421875 74.59367187 89.5234375 74.99609375 C92.37543826 76.54494955 93.06728719 77.33847001 94.0625 80.375 C95.34323679 86.58536517 95.27021774 93.0643371 95.0625 99.375 C95.04574219 100.19742188 95.02898437 101.01984375 95.01171875 101.8671875 C94.94404297 103.04667969 94.94404297 103.04667969 94.875 104.25 C94.82279297 105.29800781 94.82279297 105.29800781 94.76953125 106.3671875 C93.66226257 109.51158585 91.82428592 110.5706332 89.0625 112.375 C86.48510929 113.40922225 84.01534317 114.31061675 81.375 115.125 C80.69888672 115.34542969 80.02277344 115.56585938 79.32617188 115.79296875 C74.38846564 117.375 74.38846564 117.375 72.0625 117.375 C69.45375405 123.25258873 69.45375405 123.25258873 69.68359375 129.421875 C70.71688202 131.13266731 71.88885322 132.75727066 73.0625 134.375 C73.75563908 136.03083225 74.42724424 137.69610979 75.0625 139.375 C75.43375 139.99375 75.805 140.6125 76.1875 141.25 C77.47245573 144.37060678 77.30498305 147.04085804 77.0625 150.375 C76.4025 151.365 75.7425 152.355 75.0625 153.375 C74.4025 153.375 73.7425 153.375 73.0625 153.375 C73.0625 154.365 73.0625 155.355 73.0625 156.375 C71.3828125 158.09375 71.3828125 158.09375 69.1875 159.875 C66.58055546 162.00540629 64.95581428 163.53502857 63.0625 166.375 C61.42107037 167.4159066 59.75537785 168.42004326 58.0625 169.375 C57.7325 169.705 57.4025 170.035 57.0625 170.375 C51.85454233 169.95836339 47.76740462 168.59913673 43.0625 166.375 C41.94875 165.859375 40.835 165.34375 39.6875 164.8125 C37.0625 163.375 37.0625 163.375 36.0625 161.375 C35.43601562 161.66375 34.80953125 161.9525 34.1640625 162.25 C33.34679687 162.62125 32.52953125 162.9925 31.6875 163.375 C30.87539063 163.74625 30.06328125 164.1175 29.2265625 164.5 C27.0625 165.375 27.0625 165.375 25.0625 165.375 C24.88074219 166.13683594 24.69898438 166.89867187 24.51171875 167.68359375 C23.72337861 170.92185249 22.90078948 174.14932388 22.0625 177.375 C21.72025391 178.72658203 21.72025391 178.72658203 21.37109375 180.10546875 C21.14550781 180.89566406 20.91992188 181.68585938 20.6875 182.5 C20.49414062 183.20382812 20.30078125 183.90765625 20.1015625 184.6328125 C18.56888564 187.20263911 16.8826724 187.46983126 14.0625 188.375 C9.36282271 188.81682461 4.65590772 188.74524833 -0.0625 188.75 C-1.35027344 188.77449219 -2.63804687 188.79898438 -3.96484375 188.82421875 C-5.19589844 188.82808594 -6.42695313 188.83195313 -7.6953125 188.8359375 C-8.8208252 188.84415527 -9.94633789 188.85237305 -11.10595703 188.86083984 C-13.9375 188.375 -13.9375 188.375 -15.7409668 186.5690918 C-17.44228544 183.4493712 -18.5487374 180.18435593 -19.625 176.8125 C-19.96241211 175.80413086 -19.96241211 175.80413086 -20.30664062 174.77539062 C-21.25949622 171.8588995 -21.9375 169.46265809 -21.9375 166.375 C-28.52451152 163.73572715 -28.52451152 163.73572715 -35.37890625 164.06640625 C-37.49264525 165.14530577 -37.49264525 165.14530577 -39.37890625 166.39453125 C-40.9375 167.375 -40.9375 167.375 -42.9375 167.375 C-42.9375 168.035 -42.9375 168.695 -42.9375 169.375 C-48.02334569 171.13947708 -51.64565334 172.07915401 -56.9375 170.375 C-62.34161146 166.30100266 -66.74226909 161.6568937 -70.9375 156.375 C-71.68 155.776875 -72.4225 155.17875 -73.1875 154.5625 C-75.13837517 152.12390604 -75.26036062 151.27975504 -75.375 148.25 C-75.230625 146.97125 -75.08625 145.6925 -74.9375 144.375 C-71.42496854 142.03331236 -70.07280644 141.87876323 -65.9375 142.375 C-63.0625 144.1875 -63.0625 144.1875 -60.9375 146.375 C-60.9375 147.365 -60.9375 148.355 -60.9375 149.375 C-60.2775 149.375 -59.6175 149.375 -58.9375 149.375 C-57.71682132 150.88478679 -56.49922727 152.39883667 -55.3515625 153.96484375 C-53.47118777 155.84002408 -52.61358576 156.26407417 -49.9375 156.375 C-46.94690514 155.03815674 -44.17151194 153.53664806 -41.33398438 151.91210938 C-36.98460889 149.55481427 -33.85275192 148.86985286 -28.9375 149.375 C-26.13671875 150.25 -26.13671875 150.25 -23.625 151.375 C-20.39279161 152.902183 -20.39279161 152.902183 -16.9375 153.375 C-16.9375 154.035 -16.9375 154.695 -16.9375 155.375 C-15.2875 156.035 -13.6375 156.695 -11.9375 157.375 C-11.9375 158.695 -11.9375 160.015 -11.9375 161.375 C-11.2775 161.705 -10.6175 162.035 -9.9375 162.375 C-8.9375 164.5625 -8.9375 164.5625 -7.9375 167.375 C-7.545625 168.426875 -7.15375 169.47875 -6.75 170.5625 C-5.9375 173.375 -5.9375 173.375 -6.9375 175.375 C-4.83340361 175.40201408 -2.72920822 175.42140223 -0.625 175.4375 C0.54675781 175.44910156 1.71851563 175.46070313 2.92578125 175.47265625 C6.09309195 175.52399898 6.09309195 175.52399898 9.0625 174.375 C9.98833814 172.35123035 9.98833814 172.35123035 10.5625 169.875 C10.95308594 168.52341797 10.95308594 168.52341797 11.3515625 167.14453125 C12.09157859 164.43875245 12.09157859 164.43875245 12.4609375 161.88671875 C13.0022634 159.2466457 13.48697407 157.57899057 15.0625 155.375 C18.28853049 153.65702095 21.44209744 152.51778577 24.93359375 151.4453125 C27.90101307 150.43024022 29.64290773 149.29660012 32.0625 147.375 C35.69076895 146.92146638 37.93598943 147.52225299 41.0625 149.375 C41.0625 150.035 41.0625 150.695 41.0625 151.375 C42.47851714 151.85608275 43.89534437 152.33478141 45.3125 152.8125 C46.10140625 153.07933594 46.8903125 153.34617187 47.703125 153.62109375 C50.84590149 154.64718406 50.84590149 154.64718406 54.0625 155.375 C55.70844139 153.97911246 55.70844139 153.97911246 57.0625 152.375 C57.7225 152.375 58.3825 152.375 59.0625 152.375 C60.73208357 149.36974957 61.78901633 146.81796401 62.0625 143.375 C60.48776303 139.98523923 58.57381815 136.91606577 56.62890625 133.7265625 C54.85584592 129.93283242 54.67269723 127.51480407 55.0625 123.375 C56.4375 120.3125 56.4375 120.3125 58.0625 117.375 C58.74113055 115.3790278 59.40891919 113.37931449 60.0625 111.375 C61.05070625 108.78762944 61.58177183 107.64245491 64.03369141 106.27832031 C64.81921387 106.00600586 65.60473633 105.73369141 66.4140625 105.453125 C67.69023438 104.99873047 67.69023438 104.99873047 68.9921875 104.53515625 C69.88164062 104.23480469 70.77109375 103.93445313 71.6875 103.625 C72.5846875 103.30917969 73.481875 102.99335938 74.40625 102.66796875 C76.62047502 101.89063443 78.84093342 101.13109723 81.0625 100.375 C81.0625 95.755 81.0625 91.135 81.0625 86.375 C79.0825 86.045 77.1025 85.715 75.0625 85.375 C75.0625 84.715 75.0625 84.055 75.0625 83.375 C74.23105469 83.19324219 73.39960938 83.01148438 72.54296875 82.82421875 C71.45628906 82.57285156 70.36960937 82.32148438 69.25 82.0625 C68.17105469 81.81886719 67.09210938 81.57523437 65.98046875 81.32421875 C63.04322995 80.36873143 61.84824571 79.83690185 60.0625 77.375 C59.21875 75.32421875 59.21875 75.32421875 58.5625 73.0625 C57.67759234 70.14889445 56.81809788 67.93856764 55.3125 65.25 C53.66611568 61.46331606 54.22466864 59.39574848 55.0625 55.375 C56.56280152 52.01416624 58.25274074 48.80734643 59.98046875 45.55859375 C61.30381216 41.66500213 60.82201209 40.02732055 59.0625 36.375 C57.27984114 35.0251992 57.27984114 35.0251992 55.0625 34.375 C53.90621094 33.78912109 53.90621094 33.78912109 52.7265625 33.19140625 C50.10139563 32.10583093 50.10139563 32.10583093 47.66796875 33.16796875 C46.87003906 33.62816406 46.07210938 34.08835938 45.25 34.5625 C44.37472656 35.02785156 43.49945313 35.49320313 42.59765625 35.97265625 C41.07390956 36.81553 39.55792793 37.6730221 38.05859375 38.55859375 C34.65026735 40.27343021 32.85666451 40.59770222 29.109375 39.546875 C26.01689658 38.28246264 23.05226163 36.86355551 20.0625 35.375 C18.928125 34.983125 17.79375 34.59125 16.625 34.1875 C12.54372348 31.30074344 10.72051118 27.01889856 9.0625 22.375 C9.0625 21.055 9.0625 19.735 9.0625 18.375 C8.4025 18.045 7.7425 17.715 7.0625 17.375 C5.9375 15.3125 5.9375 15.3125 5.0625 13.375 C3.64594207 13.3477585 2.22922955 13.32849533 0.8125 13.3125 C0.02359375 13.30089844 -0.7653125 13.28929687 -1.578125 13.27734375 C-3.84441002 13.37114694 -5.7663895 13.74258937 -7.9375 14.375 C-8.2675 16.025 -8.5975 17.675 -8.9375 19.375 C-9.5975 19.375 -10.2575 19.375 -10.9375 19.375 C-11.08445312 20.37080078 -11.08445312 20.37080078 -11.234375 21.38671875 C-11.38390625 22.26972656 -11.5334375 23.15273437 -11.6875 24.0625 C-11.82671875 24.93261719 -11.9659375 25.80273438 -12.109375 26.69921875 C-13.49731637 31.18384064 -15.64199925 33.68537305 -19.77734375 35.88671875 C-20.79957031 36.27472656 -21.82179688 36.66273438 -22.875 37.0625 C-23.89464844 37.45824219 -24.91429687 37.85398438 -25.96484375 38.26171875 C-26.94582031 38.62910156 -27.92679688 38.99648437 -28.9375 39.375 C-29.82050781 39.77589844 -30.70351563 40.17679688 -31.61328125 40.58984375 C-34.63402787 41.61029765 -36.18577152 40.74207715 -38.96875 39.375 C-39.6184375 39.045 -40.268125 38.715 -40.9375 38.375 C-42.51730117 37.65882347 -44.10074879 36.95064339 -45.6875 36.25 C-46.42484375 35.91742188 -47.1621875 35.58484375 -47.921875 35.2421875 C-50.07469801 34.28235451 -50.07469801 34.28235451 -52.9375 33.375 C-54.81452451 34.42932857 -54.81452451 34.42932857 -56.5625 36.0625 C-57.17351562 36.58199219 -57.78453125 37.10148437 -58.4140625 37.63671875 C-60.20190947 39.67669799 -60.79901525 40.65970982 -60.9375 43.375 C-59.78557199 46.18779039 -59.78557199 46.18779039 -58.0625 49 C-57.50820313 49.96164063 -56.95390625 50.92328125 -56.3828125 51.9140625 C-55.66738281 53.13222656 -55.66738281 53.13222656 -54.9375 54.375 C-53.34637231 57.55725539 -53.60017214 59.83305748 -53.9375 63.375 C-57.51450205 71.66350103 -57.51450205 71.66350103 -60.9375 73.375 C-61.081875 74.15875 -61.22625 74.9425 -61.375 75.75 C-62.00775951 78.70287771 -62.72839099 79.43098407 -64.9375 81.375 C-67.40218572 85.07202857 -66.99487076 86.26211901 -66.484375 90.58984375 C-66.29875 92.45672852 -66.29875 92.45672852 -66.109375 94.36132812 C-65.83165274 96.96240281 -65.53525273 99.56156199 -65.21875 102.15820312 C-64.320116 111.67688606 -66.01405038 117.2848972 -70.9375 125.375 C-71.95290814 127.36722145 -72.95709682 129.36532102 -73.9375 131.375 C-74.5975 131.375 -75.2575 131.375 -75.9375 131.375 C-76.94572316 133.37800335 -77.94168773 135.38383322 -78.90234375 137.41015625 C-79.38380859 138.41369141 -79.38380859 138.41369141 -79.875 139.4375 C-80.19339844 140.10910156 -80.51179687 140.78070313 -80.83984375 141.47265625 C-82.03720212 143.54779335 -83.07423605 144.8644626 -84.9375 146.375 C-86.94287109 146.56030273 -86.94287109 146.56030273 -89.2109375 146.30859375 C-90.0359375 146.23576172 -90.8609375 146.16292969 -91.7109375 146.08789062 C-93.43800183 145.90507075 -95.16458144 145.71760911 -96.890625 145.52539062 C-102.15025174 145.05020527 -102.15025174 145.05020527 -106.9140625 147.16015625 C-110.01303747 150.42220958 -110.01303747 150.42220958 -111.02172852 154.63989258 C-110.92009399 155.94156372 -110.92009399 155.94156372 -110.81640625 157.26953125 C-110.74583008 158.70329102 -110.74583008 158.70329102 -110.67382812 160.16601562 C-110.55851328 162.17042091 -110.41552796 164.17343706 -110.24414062 166.17382812 C-110.12658622 169.14058261 -110.14583911 171.50890213 -110.9375 174.375 C-113.57563541 177.15640299 -116.4914238 178.75286628 -119.9375 180.375 C-120.85660156 180.83390625 -121.77570313 181.2928125 -122.72265625 181.765625 C-137.80329805 187.45643322 -137.80329805 187.45643322 -142.9375 185.375 C-145.64169409 183.00058568 -147.83232086 180.50802068 -150.0625 177.6875 C-151.90311073 175.18346331 -151.90311073 175.18346331 -154.9375 173.375 C-154.9375 172.385 -154.9375 171.395 -154.9375 170.375 C-159.09625722 169.74168672 -162.79614677 169.54971232 -166.9375 170.375 C-170.5982849 173.24557142 -173.15753198 176.675849 -175.9375 180.375 C-179.46225248 184.21658416 -179.46225248 184.21658416 -182.5625 185.25 C-187.20707635 185.42202135 -191.4367657 184.45126255 -195.9375 183.375 C-195.9375 182.715 -195.9375 182.055 -195.9375 181.375 C-196.906875 181.16875 -197.87625 180.9625 -198.875 180.75 C-203.69546896 179.34033321 -208.46880653 177.04466927 -211.9375 173.375 C-213.49238978 167.14792932 -212.46702045 161.36429172 -211.60546875 155.09375 C-211.99435995 150.73816861 -212.94052205 148.79561053 -215.93432617 145.68310547 C-219.82987974 143.13924489 -224.02944401 143.8183146 -228.5 144.1875 C-238.08029185 144.8562004 -238.08029185 144.8562004 -241.9296875 142.6953125 C-247.92428353 135.76770542 -251.06941284 125.2180879 -252.9375 116.375 C-252.17893131 109.92150515 -245.60014938 106.24400693 -240.9375 102.375 C-240.15375 101.83875 -239.37 101.3025 -238.5625 100.75 C-235.8151785 96.73468396 -236.64479628 92.09078219 -236.9375 87.375 C-237.9275 87.045 -238.9175 86.715 -239.9375 86.375 C-241.1769414 84.90724044 -242.41286664 83.43575301 -243.60546875 81.9296875 C-245.46524733 79.75903684 -247.69387793 78.1335146 -249.9375 76.375 C-252.11824469 73.10388296 -252.09206218 72.16663248 -251.40625 68.44921875 C-249.11443564 58.30794021 -245.19863349 49.72317798 -238.9375 41.375 C-231.3475 42.365 -223.7575 43.355 -215.9375 44.375 C-215.2775 43.055 -214.6175 41.735 -213.9375 40.375 C-212.4375 38.625 -212.4375 38.625 -210.9375 37.375 C-210.2775 37.375 -209.6175 37.375 -208.9375 37.375 C-208.96368408 36.66891602 -208.98986816 35.96283203 -209.0168457 35.23535156 C-209.12086357 32.03212792 -209.18584149 28.8292594 -209.25 25.625 C-209.29189453 24.51382813 -209.33378906 23.40265625 -209.37695312 22.2578125 C-209.50042709 14.05914132 -209.50042709 14.05914132 -206.796875 10.7734375 C-198.27212185 6.60422763 -188.61592366 2.19576993 -178.9375 2.375 C-175.9375 4.5 -175.9375 4.5 -173.9375 7.375 C-173.23625 8.07625 -172.535 8.7775 -171.8125 9.5 C-171.19375 10.11875 -170.575 10.7375 -169.9375 11.375 C-169.421875 11.87 -168.90625 12.365 -168.375 12.875 C-166.9375 14.375 -166.9375 14.375 -165.703125 16.453125 C-164.06045715 18.64744058 -164.06045715 18.64744058 -161.23828125 18.765625 C-159.75908203 18.69601563 -159.75908203 18.69601563 -158.25 18.625 C-157.25613281 18.58890625 -156.26226562 18.5528125 -155.23828125 18.515625 C-154.47902344 18.46921875 -153.71976562 18.4228125 -152.9375 18.375 C-152.9375 17.715 -152.9375 17.055 -152.9375 16.375 C-152.2775 16.375 -151.6175 16.375 -150.9375 16.375 C-150.6796875 15.81425781 -150.421875 15.25351563 -150.15625 14.67578125 C-147.80609726 10.23911471 -144.94061391 6.43542373 -140.9375 3.375 C-137.362489 2.82708481 -134.40308497 3.45361806 -130.9375 4.375 C-129.90625 4.560625 -128.875 4.74625 -127.8125 4.9375 C-127.19375 5.081875 -126.575 5.22625 -125.9375 5.375 C-125.9375 6.035 -125.9375 6.695 -125.9375 7.375 C-124.679375 7.684375 -123.42125 7.99375 -122.125 8.3125 C-119.67572606 8.91478048 -117.33484077 9.57588641 -114.9375 10.375 C-114.6075 11.035 -114.2775 11.695 -113.9375 12.375 C-112.9784375 12.74625 -112.9784375 12.74625 -112 13.125 C-109.9375 14.375 -109.9375 14.375 -108.625 17.25 C-107.9375 20.375 -107.9375 20.375 -108.37109375 22.10546875 C-109.18046214 25.34852417 -109.22649075 28.4746796 -109.3125 31.8125 C-109.38597656 33.75962891 -109.38597656 33.75962891 -109.4609375 35.74609375 C-108.81442636 40.22824932 -107.38138002 41.55538826 -103.9375 44.375 C-101.49089394 46.38471212 -100.99355691 47.17233272 -100.125 50.3125 C-99.9375 53.375 -99.9375 53.375 -100.4375 55.6875 C-101.9375 57.375 -101.9375 57.375 -105.3125 58.3125 C-108.9375 58.375 -108.9375 58.375 -111.25 57.25 C-112.9375 55.375 -112.9375 55.375 -113.9375 52.8125 C-115.1706235 49.80676146 -116.05055714 49.64865126 -118.9375 48.375 C-121.078125 46.97265625 -121.078125 46.97265625 -122.9375 44.375 C-123.38687062 39.92174689 -122.92569475 35.44904768 -122.60546875 30.99609375 C-122.4973694 28.34579585 -122.4502984 25.98378468 -122.9375 23.375 C-126.84988971 19.73186183 -130.56675202 18.2755417 -135.9375 18.375 C-138.29397001 20.71579757 -138.29397001 20.71579757 -139.9375 23.375 C-140.5975 23.375 -141.2575 23.375 -141.9375 23.375 C-142.5975 24.695 -143.2575 26.015 -143.9375 27.375 C-144.5975 27.375 -145.2575 27.375 -145.9375 27.375 C-146.4015625 28.3340625 -146.4015625 28.3340625 -146.875 29.3125 C-147.9375 31.375 -147.9375 31.375 -148.9375 32.375 C-156.16454402 33.26567388 -165.16334535 34.11614334 -171.8671875 31.0234375 C-173.85903316 29.264103 -175.38226407 27.52475825 -176.9375 25.375 C-177.9372157 24.27057592 -178.93718925 23.16638516 -179.9375 22.0625 C-181.9375 19.375 -181.9375 19.375 -181.9375 17.375 C-186.28235084 17.98327912 -190.61142413 18.64581724 -194.9375 19.375 C-194.91655273 20.02049805 -194.89560547 20.66599609 -194.87402344 21.33105469 C-194.79075795 24.26221068 -194.73880794 27.19311777 -194.6875 30.125 C-194.63722656 31.64867187 -194.63722656 31.64867187 -194.5859375 33.203125 C-194.48653595 40.75764251 -194.48653595 40.75764251 -196.80078125 43.92578125 C-197.50589844 44.40402344 -198.21101563 44.88226563 -198.9375 45.375 C-199.741875 46.179375 -200.54625 46.98375 -201.375 47.8125 C-202.220625 48.658125 -203.06625 49.50375 -203.9375 50.375 C-204.7625 51.24125 -205.5875 52.1075 -206.4375 53 C-210.92251873 57.26076779 -210.92251873 57.26076779 -213.9375 58.375 C-217.6801622 58.03211635 -221.27610749 57.20024967 -224.9375 56.375 C-227.26725305 55.99806921 -229.59796689 55.68693775 -231.9375 55.375 C-231.9375 56.035 -231.9375 56.695 -231.9375 57.375 C-232.9275 57.87 -232.9275 57.87 -233.9375 58.375 C-234.88331254 60.11554035 -234.88331254 60.11554035 -235.625 62.1875 C-235.89699219 62.87457031 -236.16898438 63.56164062 -236.44921875 64.26953125 C-237.06193216 66.91155149 -237.13157035 67.91164227 -235.9375 70.375 C-234.38189753 71.57940403 -232.82108994 72.77825583 -231.22412109 73.92724609 C-227.1664573 76.96701165 -223.63041034 79.85617069 -222.24560547 84.89013672 C-221.89105133 87.71093518 -221.78127099 90.4076683 -221.8125 93.25 C-221.82079834 94.15355225 -221.82909668 95.05710449 -221.83764648 95.98803711 C-222.19310974 102.03540481 -223.47349657 105.23862985 -227.9375 109.375 C-228.5975 109.375 -229.2575 109.375 -229.9375 109.375 C-229.9375 110.035 -229.9375 110.695 -229.9375 111.375 C-230.576875 111.66375 -231.21625 111.9525 -231.875 112.25 C-234.08956079 113.20323451 -234.08956079 113.20323451 -234.9375 115.375 C-235.5975 115.375 -236.2575 115.375 -236.9375 115.375 C-236.9375 116.365 -236.9375 117.355 -236.9375 118.375 C-237.5975 118.375 -238.2575 118.375 -238.9375 118.375 C-238.6075 118.973125 -238.2775 119.57125 -237.9375 120.1875 C-236.9375 122.375 -236.9375 122.375 -236.9375 125.375 C-236.2775 125.375 -235.6175 125.375 -234.9375 125.375 C-234.6075 127.355 -234.2775 129.335 -233.9375 131.375 C-233.25945312 131.3028125 -232.58140625 131.230625 -231.8828125 131.15625 C-214.5964688 129.43240409 -214.5964688 129.43240409 -210.1875 131.9375 C-207.83039095 134.4910348 -205.55108575 137.08575061 -203.3671875 139.7890625 C-201.83124096 141.62393404 -201.83124096 141.62393404 -198.9375 143.375 C-198.59692383 145.71337891 -198.59692383 145.71337891 -198.64453125 148.6015625 C-198.6590332 150.1484375 -198.6590332 150.1484375 -198.67382812 151.7265625 C-198.69896484 152.80679688 -198.72410156 153.88703125 -198.75 155 C-198.77030273 156.63195312 -198.77030273 156.63195312 -198.79101562 158.296875 C-198.82645246 160.99007409 -198.87585669 163.68229374 -198.9375 166.375 C-195.89729513 167.94030994 -192.97670603 169.04786141 -189.6875 170 C-188.79546875 170.26039063 -187.9034375 170.52078125 -186.984375 170.7890625 C-186.30890625 170.98242188 -185.6334375 171.17578125 -184.9375 171.375 C-184.669375 170.79234375 -184.40125 170.2096875 -184.125 169.609375 C-182.92269009 167.34713399 -181.59924087 165.56923682 -179.9375 163.625 C-179.421875 163.01140625 -178.90625 162.3978125 -178.375 161.765625 C-176.9375 160.375 -176.9375 160.375 -174.9375 160.375 C-174.6075 159.385 -174.2775 158.395 -173.9375 157.375 C-170.31318203 155.56284101 -166.11645462 156.06188302 -162.125 156 C-161.22201172 155.96261719 -160.31902344 155.92523438 -159.38867188 155.88671875 C-154.72768213 155.82507451 -152.658757 155.80059688 -148.90625 158.7890625 C-148.2565625 159.64242187 -147.606875 160.49578125 -146.9375 161.375 C-145.22699759 163.14885435 -144.14107811 164.27321095 -141.9375 165.375 C-141.3125 167.4375 -141.3125 167.4375 -140.9375 169.375 C-140.2775 169.375 -139.6175 169.375 -138.9375 169.375 C-138.6075 170.035 -138.2775 170.695 -137.9375 171.375 C-136.51944169 171.09017632 -135.10309621 170.79681856 -133.6875 170.5 C-132.89859375 170.33757812 -132.1096875 170.17515625 -131.296875 170.0078125 C-128.96375105 169.38204085 -127.07402894 168.48268382 -124.9375 167.375 C-124.93339111 166.73473877 -124.92928223 166.09447754 -124.92504883 165.43481445 C-124.89203962 162.51812095 -124.82138974 159.60349616 -124.75 156.6875 C-124.74419922 155.68009766 -124.73839844 154.67269531 -124.73242188 153.63476562 C-124.50920188 146.11969258 -124.50920188 146.11969258 -121.5234375 142.23046875 C-118.9375 140.375 -118.9375 140.375 -116.75 139.375 C-114.17785625 137.9558862 -113.96449348 136.04518304 -112.9375 133.375 C-105.97868522 131.05539507 -98.09725365 132.53795156 -90.9375 133.375 C-90.53337891 132.55515625 -90.53337891 132.55515625 -90.12109375 131.71875 C-88.78876951 129.08048418 -87.40402336 126.47583716 -86 123.875 C-85.49597656 122.9365625 -84.99195313 121.998125 -84.47265625 121.03125 C-82.9375 118.375 -82.9375 118.375 -81.34228516 116.70141602 C-79.32279643 113.35701072 -79.71703546 110.26307589 -79.92578125 106.49609375 C-79.97351312 104.9186647 -80.01968579 103.34118784 -80.06445312 101.76367188 C-80.15064392 99.29636894 -80.24901913 96.83151217 -80.3762207 94.3659668 C-80.86507584 84.32267581 -80.94317053 77.50673896 -73.93896484 69.56030273 C-73.27848145 68.83915283 -72.61799805 68.11800293 -71.9375 67.375 C-70.10781053 64.6686455 -69.06413452 62.48665724 -67.9375 59.375 C-69.03828281 56.48257373 -69.03828281 56.48257373 -70.9375 54.375 C-70.9375 53.715 -70.9375 53.055 -70.9375 52.375 C-71.5975 52.375 -72.2575 52.375 -72.9375 52.375 C-73.06125 51.570625 -73.185 50.76625 -73.3125 49.9375 C-73.51875 49.091875 -73.725 48.24625 -73.9375 47.375 C-74.5975 47.045 -75.2575 46.715 -75.9375 46.375 C-76.71561718 42.55515204 -77.18136556 40.10659669 -75.9375 36.375 C-74.82201286 35.19190758 -73.69612405 34.01687193 -72.51953125 32.89453125 C-71.34818923 31.76946447 -70.20355933 30.61644077 -69.07421875 29.44921875 C-58.8043814 18.86031849 -58.8043814 18.86031849 -53.69921875 17.99609375 C-49.06688743 18.63164699 -45.42713428 21.24568937 -41.46484375 23.61914062 C-37.56022044 25.86018866 -37.56022044 25.86018866 -33.1640625 26.1484375 C-32.42929687 25.89320313 -31.69453125 25.63796875 -30.9375 25.375 C-29.90625 25.230625 -28.875 25.08625 -27.8125 24.9375 C-24.8372154 23.69139657 -24.8372154 23.69139657 -23.99609375 21.3359375 C-23.21642738 18.69895073 -22.57023715 16.05079204 -21.9375 13.375 C-21.43728742 11.72278267 -20.91767209 10.07626225 -20.375 8.4375 C-20.14683594 7.72722656 -19.91867187 7.01695312 -19.68359375 6.28515625 C-18.9375 4.375 -18.9375 4.375 -16.9375 1.375 C-11.72466432 -0.61505238 -5.48946361 0.06574208 0 0 Z " fill="#FFEA80" transform="translate(328.9375,155.625)"/>
<path d="M0 0 C0.91628174 -0.01772461 1.83256348 -0.03544922 2.77661133 -0.05371094 C7.85234163 -0.04810601 10.89415875 0.27205674 15.125 3.3125 C16.77631835 3.82337662 18.44442923 4.28311266 20.125 4.6875 C24.69538305 5.96232495 26.932697 7.74463195 30.125 11.3125 C30.785 11.4775 31.445 11.6425 32.125 11.8125 C35.39023152 12.62880788 36.99079138 14.82258995 39.125 17.3125 C39.125 18.3025 39.125 19.2925 39.125 20.3125 C40.61 20.8075 40.61 20.8075 42.125 21.3125 C44.17081753 25.25259301 45.99585268 28.83382909 45.125 33.3125 C43.5 35.1875 43.5 35.1875 41.125 36.3125 C37.96517024 36.37973042 36.02469321 36.12057954 33.62890625 33.96875 C30.125 29.91890935 30.125 29.91890935 30.125 27.3125 C29.58875 27.065 29.0525 26.8175 28.5 26.5625 C25.5426018 25.00597463 22.82775949 23.27814327 20.125 21.3125 C20.125 20.6525 20.125 19.9925 20.125 19.3125 C19.5475 19.168125 18.97 19.02375 18.375 18.875 C15.25 18.09375 15.25 18.09375 12.125 17.3125 C12.125 16.6525 12.125 15.9925 12.125 15.3125 C-1.23220166 13.43780503 -13.72443368 12.94791764 -25.875 19.3125 C-26.535 19.3125 -27.195 19.3125 -27.875 19.3125 C-27.875 19.9725 -27.875 20.6325 -27.875 21.3125 C-32.25961538 24.3125 -32.25961538 24.3125 -34.875 24.3125 C-34.875 24.9725 -34.875 25.6325 -34.875 26.3125 C-35.535 26.3125 -36.195 26.3125 -36.875 26.3125 C-37.14441406 26.88613281 -37.41382813 27.45976562 -37.69140625 28.05078125 C-38.9017408 30.36359876 -40.29406892 32.37883291 -41.8125 34.5 C-45.89614342 40.55574439 -48.13266097 47.03757755 -48.875 54.3125 C-48.95105469 54.993125 -49.02710937 55.67375 -49.10546875 56.375 C-49.84756863 68.56950606 -44.71897558 79.5252904 -37.19921875 88.78515625 C-29.27193008 97.40524998 -19.82776287 101.87992294 -8.140625 102.515625 C4.3711681 102.76010476 13.80538703 100.71727492 24.125 93.3125 C24.785 92.59835937 25.445 91.88421875 26.125 91.1484375 C28.51340769 88.95595388 29.56127579 88.79501528 32.75 88.875 C33.52601563 88.87628906 34.30203125 88.87757813 35.1015625 88.87890625 C37.125 89.3125 37.125 89.3125 39.125 92.3125 C39.75 95.0625 39.75 95.0625 39.125 98.3125 C34.97016785 103.17207584 29.68440265 106.31042257 24.125 109.3125 C23.465 109.9725 22.805 110.6325 22.125 111.3125 C5.69314529 117.76787149 -11.2521396 118.81709755 -27.875 112.3125 C-29.88856164 110.99973677 -31.89039727 109.6686452 -33.875 108.3125 C-35.1125 107.9825 -36.35 107.6525 -37.625 107.3125 C-40.875 106.3125 -40.875 106.3125 -41.9375 104.5 C-42.246875 103.778125 -42.55625 103.05625 -42.875 102.3125 C-44.3909375 101.075 -44.3909375 101.075 -45.9375 99.8125 C-48.875 97.3125 -48.875 97.3125 -49.75 95 C-49.79125 94.443125 -49.8325 93.88625 -49.875 93.3125 C-50.535 93.3125 -51.195 93.3125 -51.875 93.3125 C-52.14054687 92.74660156 -52.40609375 92.18070312 -52.6796875 91.59765625 C-53.03289062 90.86417969 -53.38609375 90.13070312 -53.75 89.375 C-54.27207031 88.27865234 -54.27207031 88.27865234 -54.8046875 87.16015625 C-55.7434977 85.14917541 -55.7434977 85.14917541 -57.875 84.3125 C-58.45336914 82.52172852 -58.45336914 82.52172852 -58.91015625 80.19140625 C-59.07966797 79.33740234 -59.24917969 78.48339844 -59.42382812 77.60351562 C-59.59333984 76.70310547 -59.76285156 75.80269531 -59.9375 74.875 C-60.11087891 74.00939453 -60.28425781 73.14378906 -60.46289062 72.25195312 C-62.21577611 63.2323163 -63.65590873 55.00633621 -61.3125 46 C-61.13412598 45.27796387 -60.95575195 44.55592773 -60.77197266 43.81201172 C-58.67189798 35.8020549 -55.47975789 28.21963683 -50.875 21.3125 C-50.545 20.6525 -50.215 19.9925 -49.875 19.3125 C-48.885 19.6425 -47.895 19.9725 -46.875 20.3125 C-46.648125 19.735 -46.42125 19.1575 -46.1875 18.5625 C-43.46818783 13.900822 -38.37472985 11.11233191 -33.875 8.3125 C-33.215 8.3125 -32.555 8.3125 -31.875 8.3125 C-31.875 7.6525 -31.875 6.9925 -31.875 6.3125 C-21.22296486 1.55258842 -11.59670999 0.13875219 0 0 Z " fill="#FFEA80" transform="translate(170.875,191.6875)"/>
<path d="M0 0 C0 0.99 0 1.98 0 3 C1.27875 3.144375 2.5575 3.28875 3.875 3.4375 C6.25692894 3.70642746 7.84452691 3.92226346 10 5 C10 5.66 10 6.32 10 7 C10.72960937 7.25910156 11.45921875 7.51820313 12.2109375 7.78515625 C15.08751336 9.03811856 17.179917 10.4839543 19.625 12.4375 C20.38039063 13.03433594 21.13578125 13.63117188 21.9140625 14.24609375 C29.63789211 20.74047483 33.8480618 30.54418539 37 40 C37.66 40.66 38.32 41.32 39 42 C39.3715938 44.59815985 39.61434394 47.07483304 39.75 49.6875 C39.78947754 50.44554932 39.82895508 51.20359863 39.86962891 51.98461914 C40.32537856 63.68178742 38.89199401 73.73520207 33 84 C32.505 85.485 32.505 85.485 32 87 C28.63761981 92.92365637 24.75588388 98.21713817 19 102 C18.34 102 17.68 102 17 102 C16.505 103.485 16.505 103.485 16 105 C13.71797275 106.33653259 11.50795631 107.50248964 9.125 108.625 C8.48691406 108.93695313 7.84882813 109.24890625 7.19140625 109.5703125 C-6.65525594 116.27683782 -22.10461889 117.01568407 -36.77734375 112.65625 C-38.93343781 111.90561001 -38.93343781 111.90561001 -41 112 C-41 111.34 -41 110.68 -41 110 C-41.71542969 109.90847656 -42.43085938 109.81695312 -43.16796875 109.72265625 C-51.45823233 107.60720968 -59.66312496 99.51435177 -65 93 C-65 92.34 -65 91.68 -65 91 C-65.66 91 -66.32 91 -67 91 C-68.15837626 86.94568308 -67.83691257 84.78187881 -66 81 C-58.75284794 80.38583457 -58.75284794 80.38583457 -55.625 82.9375 C-55.23828125 83.38996094 -54.8515625 83.84242188 -54.453125 84.30859375 C-47.17742178 92.77735584 -38.24878999 99.36500145 -27 101 C-11.35422204 101.82429631 -0.15589804 99.81600792 12.1875 89.6875 C20.36811941 82.25930546 24.83910955 71.88915243 26 61 C26.46236564 47.34576475 23.32941884 37.12469248 14.5 26.4375 C9.2699365 20.98562577 4.39520009 17.66014696 -3 16 C-3 15.34 -3 14.68 -3 14 C-17.71248483 11.59796166 -31.08560873 12.19310483 -44 20 C-46.70142231 22.03085649 -49.30123531 24.13363914 -51.87109375 26.328125 C-54 28 -54 28 -57 29 C-59.625 27.9375 -59.625 27.9375 -62 26 C-63.05505768 22.38265938 -63.1966746 20.59002381 -62 17 C-60.37064759 15.62131719 -58.70250393 14.28725907 -57 13 C-56.34 12.34 -55.68 11.68 -55 11 C-49.35294118 7 -49.35294118 7 -47 7 C-47 6.34 -47 5.68 -47 5 C-44.62683882 4.18177267 -42.2517058 3.37031293 -39.875 2.5625 C-39.20984375 2.33240234 -38.5446875 2.10230469 -37.859375 1.86523438 C-25.57028594 -2.29136928 -12.74947013 -1.48434579 0 0 Z " fill="#FFEA80" transform="translate(349,193)"/>
<path d="M0 0 C0.33 0.66 0.66 1.32 1 2 C1.66 1.67 2.32 1.34 3 1 C5.0374763 0.77141886 7.08040303 0.58975722 9.125 0.4375 C10.22070312 0.35371094 11.31640625 0.26992187 12.4453125 0.18359375 C13.28835937 0.12300781 14.13140625 0.06242188 15 0 C15 0.66 15 1.32 15 2 C16.7634375 2.0928125 16.7634375 2.0928125 18.5625 2.1875 C23.19351 2.76431619 26.80311259 4.56218774 30 8 C30.62890625 10.10546875 30.62890625 10.10546875 31 12 C31.495 12.495 31.495 12.495 32 13 C32.18153617 15.41353832 32.27814571 17.77124819 32.3125 20.1875 C32.36857422 22.15783203 32.36857422 22.15783203 32.42578125 24.16796875 C31.78955984 29.89396146 29.17022737 32.82977263 25.1875 36.8125 C19.47061903 40.73584969 12.76902557 40.13720851 6.0625 40.0625 C5.28326172 40.05798828 4.50402344 40.05347656 3.70117188 40.04882812 C1.80074732 40.03716908 -0.09963706 40.01923877 -2 40 C-2.16767195 35.07059672 -2.32822547 30.14103251 -2.48217773 25.21118164 C-2.53555698 23.5340348 -2.59088316 21.85694876 -2.64819336 20.17993164 C-2.73021822 17.76982734 -2.80524581 15.35959139 -2.87890625 12.94921875 C-2.90594131 12.19912033 -2.93297638 11.44902191 -2.96083069 10.67619324 C-3.05259138 7.47767446 -3.02105583 5.06316748 -2 2 C-1.34 2 -0.68 2 0 2 C0 1.34 0 0.68 0 0 Z M9 9 C7.7736243 11.45275141 7.88584686 13.0505781 7.90234375 15.7890625 C7.90556641 16.73007813 7.90878906 17.67109375 7.91210938 18.640625 C7.92048828 19.62546875 7.92886719 20.6103125 7.9375 21.625 C7.94201172 22.61757812 7.94652344 23.61015625 7.95117188 24.6328125 C7.96297855 27.0886016 7.979446 29.54427104 8 32 C9.90458984 31.81050781 9.90458984 31.81050781 11.84765625 31.6171875 C12.56187744 31.54612793 13.27609863 31.47506836 14.01196289 31.40185547 C16.96731007 30.80447103 18.24958114 29.38056965 20 27 C21.50913724 22.47258828 21.77429281 17.93573202 20 13.5 C19.67 13.005 19.34 12.51 19 12 C18.01 12 17.02 12 16 12 C15.67 11.34 15.34 10.68 15 10 C11.97065509 9.34227572 11.97065509 9.34227572 9 9 Z " fill="#FFEA80" transform="translate(136,229)"/>
<path d="M0 0 C1.62890625 0.828125 1.62890625 0.828125 3.87890625 2.328125 C3.87890625 2.988125 3.87890625 3.648125 3.87890625 4.328125 C5.36390625 4.823125 5.36390625 4.823125 6.87890625 5.328125 C10.68213595 12.9345844 10.7948733 20.62082459 9.12890625 28.890625 C7.87890625 32.328125 7.87890625 32.328125 5.94140625 33.640625 C5.26078125 33.8675 4.58015625 34.094375 3.87890625 34.328125 C3.38390625 34.84375 2.88890625 35.359375 2.37890625 35.890625 C-0.73883707 38.87846235 -4.94704677 38.489701 -9.05859375 38.515625 C-10.07824219 38.52980469 -11.09789062 38.54398437 -12.1484375 38.55859375 C-17.00703826 38.18190854 -19.43769958 37.04330495 -22.80859375 33.515625 C-27.7046791 26.76696682 -27.90871035 20.47995678 -27.12109375 12.328125 C-25.80036703 7.5554989 -23.93065522 4.97246984 -20.05859375 1.890625 C-14.04965031 -1.30562151 -6.58018181 -2.08433015 0 0 Z M-10.68359375 7.890625 C-13.81545778 9.73762174 -14.7529873 10.94386168 -16.12109375 14.328125 C-16.68648522 19.19579221 -16.72171387 24.03710179 -14.12109375 28.328125 C-11.71424723 30.15400857 -10.57296839 30.37221033 -7.55859375 30.078125 C-4.90040166 29.38717447 -4.90040166 29.38717447 -2.12109375 27.328125 C-0.46394187 22.2060192 -0.2227437 16.39433012 -2.37109375 11.453125 C-4.99670852 8.26487849 -6.51905725 6.97645845 -10.68359375 7.890625 Z " fill="#FFEA80" transform="translate(305.12109375,230.671875)"/>
<path d="M0 0 C2.53407754 0.1816543 5.03503303 0.52052902 7.5546875 0.84375 C10.13854726 1.16275066 10.13854726 1.16275066 13 0 C17.76061911 -0.26946901 21.6739153 -0.11273904 26 2 C27.64530416 4.91667555 28 6.64720982 28 10 C28.66 10.33 29.32 10.66 30 11 C28.71838844 22.99358881 28.71838844 22.99358881 25.5625 26.1875 C22.04258658 28.67719486 19.51464031 29.12340058 15.3125 29.0625 C13.889375 29.041875 12.46625 29.02125 11 29 C11 32.3 11 35.6 11 39 C1.375 41.125 1.375 41.125 -2 40 C-1.88206661 34.46395625 -1.75784219 28.92810387 -1.62768555 23.39233398 C-1.58427067 21.50760782 -1.54260057 19.62284064 -1.50268555 17.73803711 C-1.44514107 15.03486751 -1.38140196 12.33190564 -1.31640625 9.62890625 C-1.29969376 8.78099014 -1.28298126 7.93307404 -1.26576233 7.0594635 C-1.11387171 1.11387171 -1.11387171 1.11387171 0 0 Z M10 10 C9.63637182 12.20725073 9.63637182 12.20725073 9.8125 14.625 C9.83957031 15.44226563 9.86664063 16.25953125 9.89453125 17.1015625 C9.92933594 17.72804688 9.96414063 18.35453125 10 19 C11.87269715 20.10318584 11.87269715 20.10318584 14 21 C16.23470405 20.21690533 16.23470405 20.21690533 18 19 C18.50675587 13.68989705 18.50675587 13.68989705 16.625 9 C13.64152185 7.16401344 12.96236938 8.02508708 10 10 Z " fill="#FFEA80" transform="translate(319,240)"/>
<path d="M0 0 C0 0.99 0 1.98 0 3 C0.99 3.33 1.98 3.66 3 4 C3.9738963 6.92168889 4.19605823 9.01029474 4.25 12.0625 C4.27578125 12.94035156 4.3015625 13.81820312 4.328125 14.72265625 C4.21984375 15.47417969 4.1115625 16.22570312 4 17 C3.01 17.66 2.02 18.32 1 19 C1.66 21.31 2.32 23.62 3 26 C-0.50691037 28.16073695 -3.36161926 28.268848 -7.4375 28.25 C-8.54996094 28.25515625 -9.66242188 28.2603125 -10.80859375 28.265625 C-14.00062394 27.99994807 -16.1655124 27.46440253 -19 26 C-22.49410524 21.8264854 -23.90772051 18.44448971 -24 13 C-22.95802066 8.54181695 -21.54283503 4.81425255 -19 1 C-12.82416435 -1.79383041 -6.52258715 -1.63064679 0 0 Z M-8 7 C-10.60280568 7.32041397 -10.60280568 7.32041397 -13 8 C-13 8.33 -13 8.66 -13 9 C-10.69 9 -8.38 9 -6 9 C-6.66 8.34 -7.32 7.68 -8 7 Z M-12 17 C-12 17.66 -12 18.32 -12 19 C-9.59454362 20.20272819 -8.05003047 20.10071472 -5.375 20.0625 C-4.55773437 20.05347656 -3.74046875 20.04445313 -2.8984375 20.03515625 C-2.27195313 20.02355469 -1.64546875 20.01195312 -1 20 C-1 19.01 -1 18.02 -1 17 C-4.63 17 -8.26 17 -12 17 Z " fill="#FFEA80" transform="translate(193,241)"/>
<path d="M0 0 C3.96 0 7.92 0 12 0 C15 9.625 15 9.625 15 13 C15.66 13 16.32 13 17 13 C17.09087891 12.09507812 17.09087891 12.09507812 17.18359375 11.171875 C17.26738281 10.37265625 17.35117188 9.5734375 17.4375 8.75 C17.51871094 7.96109375 17.59992188 7.1721875 17.68359375 6.359375 C18 4 18 4 19 0 C22.96 0 26.92 0 31 0 C30.67 1.98 30.34 3.96 30 6 C29.34 6 28.68 6 28 6 C27.7834375 7.299375 27.7834375 7.299375 27.5625 8.625 C27.376875 9.73875 27.19125 10.8525 27 12 C26.855625 13.093125 26.71125 14.18625 26.5625 15.3125 C26.376875 16.199375 26.19125 17.08625 26 18 C25.34 18.33 24.68 18.66 24 19 C23.13234482 20.85014474 23.13234482 20.85014474 22.4375 23 C21.08991826 26.91008174 21.08991826 26.91008174 20 28 C16.99996555 28.14177857 14.00242765 28.04228771 11 28 C8.12038968 21.74223972 5.59150176 15.41431494 3.25 8.9375 C2.93417969 8.07189453 2.61835938 7.20628906 2.29296875 6.31445312 C1.52583864 4.21065691 0.76251164 2.10547456 0 0 Z " fill="#FFEA80" transform="translate(196,241)"/>
<path d="M0 0 C-0.33 2.64 -0.66 5.28 -1 8 C-3.64 8 -6.28 8 -9 8 C-8.37351562 8.21914062 -7.74703125 8.43828125 -7.1015625 8.6640625 C-0.40885394 11.26091787 -0.40885394 11.26091787 1.625 14.9375 C2.00325155 18.02655428 1.85958975 20.03050815 1 23 C0.814375 23.763125 0.62875 24.52625 0.4375 25.3125 C0.293125 25.869375 0.14875 26.42625 0 27 C-3.74563374 27.86915258 -7.22028497 28.13471483 -11.0625 28.125 C-12.59583984 28.12886719 -12.59583984 28.12886719 -14.16015625 28.1328125 C-16.61649932 28.01793538 -18.65768316 27.70775041 -21 27 C-20.67 24.36 -20.34 21.72 -20 19 C-18.68 18.67 -17.36 18.34 -16 18 C-16 18.66 -16 19.32 -16 20 C-14.35 20 -12.7 20 -11 20 C-11.66 19.67 -12.32 19.34 -13 19 C-13 18.34 -13 17.68 -13 17 C-13.598125 16.731875 -14.19625 16.46375 -14.8125 16.1875 C-17.14126747 14.92331195 -18.49243283 14.1859724 -20 12 C-20.37264829 7.90086882 -20.60493643 4.34920398 -18 1 C-12.70425059 -2.2095451 -5.77567923 -1.63709729 0 0 Z " fill="#FFEA80" transform="translate(370,241)"/>
<path d="M0 0 C3.3 0.33 6.6 0.66 10 1 C10 1.33 10 1.66 10 2 C9.11248047 2.00386719 9.11248047 2.00386719 8.20703125 2.0078125 C3.39738803 2.17053391 3.39738803 2.17053391 -0.7109375 4.40234375 C-2.23632914 6.21947959 -2.23632914 6.21947959 -4 9 C-4.33 8.34 -4.66 7.68 -5 7 C-3.35 4.69 -1.7 2.38 0 0 Z " fill="#FFEA80" transform="translate(90,197)"/>
<path d="M0 0 C-0.598125 0.2475 -1.19625 0.495 -1.8125 0.75 C-4.13293213 1.87980389 -4.13293213 1.87980389 -5.5625 4.125 C-6.036875 4.74375 -6.51125 5.3625 -7 6 C-7.99 6 -8.98 6 -10 6 C-7.82304683 0.97626191 -5.41372848 -0.29263397 0 0 Z " fill="#FFEA80" transform="translate(278,174)"/>
<path d="M0 0 C0 3.17370278 -0.30933342 4.3794668 -2 7 C-4.125 8.25 -4.125 8.25 -6 9 C-5.69381595 5.32579134 -5.24228216 4.21864487 -2.4375 1.6875 C-1.633125 1.130625 -0.82875 0.57375 0 0 Z " fill="#FFEA80" transform="translate(292,206)"/>
<path d="M0 0 C0.66 0.66 1.32 1.32 2 2 C0.625 3.5 0.625 3.5 -1 5 C-1.66 5 -2.32 5 -3 5 C-3 7.31 -3 9.62 -3 12 C-4.29539465 9.86640881 -5.03274515 8.52392246 -4.875 6 C-3.73959163 3.40478086 -2.08514322 1.88335517 0 0 Z " fill="#FFEA80" transform="translate(257,188)"/>
<path d="M0 0 C2 1 2 1 2 1 Z " fill="#FFEA80" transform="translate(381,310)"/>
<path d="" fill="#FFEA80" transform="translate(0,0)"/>
<path d="" fill="#FFEA80" transform="translate(0,0)"/>
<path d="M0 0 C2 1 2 1 2 1 Z " fill="#FFEA80" transform="translate(118,286)"/>
<path d="" fill="#FFEA80" transform="translate(0,0)"/>
<path d="" fill="#FFEA80" transform="translate(0,0)"/>
<path d="" fill="#FFEA80" transform="translate(0,0)"/>
<path d="" fill="#FFEA80" transform="translate(0,0)"/>
<path d="" fill="#FFEA80" transform="translate(0,0)"/>
<path d="" fill="#FFEA80" transform="translate(0,0)"/>
<path d="" fill="#FFEA80" transform="translate(0,0)"/>
<path d="" fill="#FFEA80" transform="translate(0,0)"/>
<path d="" fill="#FFEA80" transform="translate(0,0)"/>
<path d="" fill="#FFEA80" transform="translate(0,0)"/>
</svg>